inDegrees=yes
name=ik_Xsens_quaternion (2)
DataType=double
version=3
OpenSimVersion=4.4-2022-07-23-0e9fedc
endheader
time	pelvis_tilt	pelvis_list	pelvis_rotation	pelvis_tx	pelvis_ty	pelvis_tz	hip_flexion_r	hip_adduction_r	hip_rotation_r	knee_angle_r	knee_angle_r_beta	ankle_angle_r	subtalar_angle_r	mtp_angle_r	hip_flexion_l	hip_adduction_l	hip_rotation_l	knee_angle_l	knee_angle_l_beta	ankle_angle_l	subtalar_angle_l	mtp_angle_l	lumbar_extension	lumbar_bending	lumbar_rotation	arm_flex_r	arm_add_r	arm_rot_r	elbow_flex_r	pro_sup_r	wrist_flex_r	wrist_dev_r	arm_flex_l	arm_add_l	arm_rot_l	elbow_flex_l	pro_sup_l	wrist_flex_l	wrist_dev_l
12.15	20519.2516379787	-145437.9137523223	-42861.30901788599	0	0.93	0	-3.065580579242201	1.636614997825817	-0.8389556129689345	11.12825523322978	0.1942246938221492	7.733090817919178	0	0	26.06300750413599	-1.778292320077116	0.2182615107729929	1.99823451187027	0.03487577145911792	3.430695159625252	0	0	0	0	0	0	0	0	2.494861556897904e-40	0	0	0	0	0	0	0	0	0	0
12.16	20519.20711613012	-145438.0483437378	-42861.74603980124	0	0.93	0	-3.468228305918041	1.597859976696388	-0.5995683673982188	11.44296324500939	0.1997173848101084	7.944965777089759	0	0	25.97294983622064	-2.0663933989673	0.6905277994836085	0.2850946010178016	0.004975839467420215	4.46679223298756	0	0	0	0	0	0	0	0	0	3.972737025494313e-39	0	0	0	0	0	0	3.972737025494313e-39	0	0
12.17	20519.16865909717	-145438.1834723284	-42862.19915062879	0	0.93	0	-3.827844602760267	1.523606698203621	-0.3504148892304547	11.86439951370238	0.2070728352861206	8.170951582926795	0	0	26.44716344118314	-2.314910186423532	1.112261566601624	0.1222558871531965	0.002133767760769917	6.352266838281401	0	0	0	0	0	0	0	0	0	0	0	0	0	0	0	0	0	0	0
12.18	20519.11355895346	-145438.2823453907	-42862.65127235337	0	0.93	0	-4.132563208995293	1.416282076822184	-0.1306974789094213	12.35070785016999	0.2155605169373768	8.390082796234283	0	0	26.78754547548643	-2.343647566068001	1.512348250351439	0.09406958122657172	0.001641823918375922	8.137873555219592	0	0	0	0	0	0	0	0	0	0	0	0	0	0	0	0	0	0	0
12.19	20519.08046743633	-145438.3587924147	-42863.09131248623	0	0.93	0	-4.40570899556032	1.261328920566844	0.0586723739009997	12.95425472849376	0.2260943971542602	8.641451464122152	-1.321305532642991e-18	1.490358249997155e-26	26.85767016481705	-2.126100399650511	1.689818036561142	0.08805359585220285	0.001536825165841362	9.455194966139345	-1.063077494025937e-21	-3.318208636204649e-26	1.218825428985827e-28	2.17070921390487e-27	-2.133906486232246e-29	-5.866556734453723e-17	-1.216419658921368e-26	1.967919929782152e-17	9.071326780827384e-16	9.071329071909751e-16	-1.552287766355603e-26	7.91637180911322e-27	8.730001140957175e-17	2.043736056426544e-17	-2.115324046219869e-18	9.071327262482013e-16	9.071327330704603e-16	9.370328859622186e-28	4.866859516216234e-27
12.2	20519.02990894881	-145438.3951745279	-42863.51561855242	0	0.93	0	-4.557838732392915	1.064917044632715	0.2324183472369664	13.73887509660042	0.2397886059559313	8.979377254140223	-3.403559055265008e-21	2.527591411406466e-27	26.87477292527386	-1.765130782298363	1.558615776359617	0.08814496698817997	0.00153841989300545	9.870533436252693	2.498943851941803e-23	1.108023037113796e-26	-2.787173910461028e-30	9.03045101623731e-21	1.493305536171838e-30	-3.051933089948233e-19	7.74087232644062e-29	-9.355261032194334e-19	0	0	3.228249738713755e-21	2.153967493194444e-22	2.492678143094498e-19	-8.486967305810581e-19	-7.561175746293957e-19	0	0	7.853814058989241e-22	-2.262616064451953e-22
12.21	20518.98962763389	-145438.4230160905	-42863.93622402156	8.885729220618168e-39	0.93	8.105093644658683e-29	-4.6472650654292	0.8458120308151913	0.3802880740569457	14.62127976583339	0.2551894727690182	9.243089542414333	-8.548064993491701e-16	-3.109661212201518e-16	26.78850189830912	-1.441810721468937	1.376785141110216	0.09626938149720808	0.001680217675984789	9.693145192025922	1.269640021939021e-15	-3.944416943132437e-16	3.320478856478643e-18	-1.540458459072821e-15	6.838750330714731e-16	-2.478876807867462e-15	-2.736143876111786e-15	1.424226724497965e-16	0	0	-1.208542783143134e-22	-1.638799998384677e-21	5.243623957909027e-16	5.771531584428283e-17	3.417341356028497e-16	0	0	-2.634062590506725e-22	-8.582532204094083e-21
12.22	20518.93679788671	-145438.4170775534	-42864.35781142528	0	0.93	0	-4.750612644404756	0.5847376346855273	0.5011899490385819	15.48085435040102	0.2701918794361857	9.43735998818212	0	0	26.53376761880013	-1.306137280495806	1.373660325362648	0.1314206276287563	0.002293722657159226	9.497296299567132	0	0	0	0	0	0	0	0	0	0	0	0	0	0	0	0	0	0	0
12.23	20518.92054745553	-145438.4040110461	-42864.80112887682	0	0.93	0	-4.914091067499094	0.2951744941445912	0.6302762303106234	16.28933011022077	0.2843024433676033	9.489246633687344	0	0	26.08195899041021	-1.46396618647585	1.544910150241604	0.3104767811380896	0.00541884208185349	8.228217679959368	0	0	0	0	0	0	0	0	0	0	0	0	0	0	0	0	0	0	0
12.24	20518.92011091005	-145438.3980062871	-42865.2263164797	2.774640366349701e-41	0.93	1.432214826368732e-31	-5.013655912310162	-0.007298204051757375	0.6988151048597947	17.29161300268907	0.3017955798775874	9.574644298520564	1.371429141148241e-20	8.374472421635395e-26	26.01869988492573	-1.524825533196768	1.652637079666662	1.620856131519015	0.02828927619614505	8.219030294865549	-1.57487234496301e-24	-1.625424540926589e-25	-7.77952225209716e-30	-5.418841398807682e-27	7.486387839140449e-29	-3.143555180190533e-18	-3.56444939364075e-27	-2.985287257172751e-17	0	0	8.643842360943304e-28	2.825329826256963e-26	-1.14584863104764e-17	8.645284084716193e-18	-1.936475604379743e-17	0	0	4.101953470435464e-27	-1.397859792934017e-25
12.25	20518.97070702488	-145438.4110375889	-42865.64161545062	0	0.93	0	-5.229785207222077	-0.3324418208227689	0.7590736504811529	18.20325964006843	0.3177068153145921	9.4883742412906	0	0	26.17356063352774	-1.354988560459443	1.623659183210894	3.237092538741785	0.05649792299278624	7.823763012852463	0	0	0	0	0	0	0	0	0	0	0	0	0	0	0	0	0	0	0
12.26	20519.02874405094	-145438.4662350261	-42866.05709978716	0	0.93	0	-5.437825158310961	-0.6011886360029209	0.8139305194224161	19.14276918069742	0.3341043501524673	9.230647495633681	0	0	26.21879956555407	-1.353629306003749	1.516722056744886	3.979678851528574	0.06945849913116019	6.156293334690535	0	0	0	0	0	0	0	0	0	0	0	0	0	0	0	0	0	0	0
12.27	20519.13569072352	-145438.5257142955	-42866.45933230683	0	0.93	0	-5.708931630643437	-0.9096794507767232	0.837540151622258	20.11292608667452	0.3510367824227287	8.815109152189551	0	0	26.02631408514668	-1.34917697678479	1.13886913777555	4.120297157211987	0.07191275155391161	3.781963679939809	0	0	0	0	0	0	0	0	0	0	0	0	0	0	0	0	0	0	0
12.28	20519.29280828473	-145438.594025816	-42866.83303151641	0	0.93	0	-5.962270622991644	-1.173251830089966	0.7710503291214504	21.1841758830887	0.3697336184814752	8.25966895352046	0	0	25.56219140524796	-1.272824779688657	0.6397755518642679	4.588608171569232	0.08008632067779996	2.033124076097655	0	0	0	0	0	0	0	0	0	0	0	0	0	0	0	0	0	0	0
12.29	20519.47930855739	-145438.636539171	-42867.18585724381	0	0.93	0	-6.200812946851137	-1.50510620450206	0.6263785315672591	22.30618275072891	0.389316332551785	7.418912313458415	0	0	24.91602678050241	-1.171346182189623	0.2316562828109109	5.507838600198468	0.09612991824189887	1.040843821471973	0	0	0	0	0	0	0	0	0	0	0	0	0	0	0	0	0	0	0
12.3	20519.64040401626	-145438.6622897143	-42867.48035134757	0	0.93	0	-6.27933234458468	-1.865732584799465	0.3601337185513442	23.62458091303585	0.4123267213362838	6.288914672525107	0	0	24.1880751949998	-0.9659122137794121	-0.05798646032575262	6.306638285104812	0.1100716028074078	-0.002082240448761697	0	0	0	0	0	0	0	0	0	3.052577426530233e-38	0	0	0	0	0	0	3.052577426530233e-38	0	0
12.31	20519.80355619921	-145438.6436747917	-42867.72913497321	0	0.93	0	-6.188170027714717	-2.3270965929692	-0.03768931195612268	25.09078811059869	0.4379168644501943	4.71610028217186	0	0	23.46354060540403	-0.7476395628729495	-0.2915499255239811	6.883699935785137	0.1201432285987729	-1.147064488505732	0	0	0	0	0	0	0	0	0	0	0	0	0	0	0	0	0	0	0
12.32	20519.96747868472	-145438.6114269276	-42867.93131967729	0	0.93	0	-5.871432819594887	-2.908640483296373	-0.5767832776617532	26.83775642796951	0.4684072135163402	2.729215265510969	0	0	23.0121058111749	-0.5550187124487114	-0.5246651140480165	7.707828163018505	0.1345269796226191	-1.944870693453506	0	0	0	0	0	0	0	0	0	0	0	0	0	0	0	0	0	0	0
12.33	20520.12710689533	-145438.5296814407	-42868.06929197378	0	0.93	0	-5.299750745322318	-3.609242837438665	-1.231472514987196	28.8215634979074	0.5030311786110979	0.301509824125174	0	0	23.15561510879604	-0.3732752573774519	-0.7743075907875094	9.372603619071068	0.1635827926371265	-2.219373803175873	0	0	0	0	0	0	0	0	0	0	0	0	0	0	0	0	0	0	0
12.34	20520.28961129791	-145438.4363205046	-42868.1753372647	0	0.93	0	-4.565747377137154	-4.306687386509236	-1.984766924519899	31.00135038550231	0.5410756367914287	-2.598817251222269	0	0	23.66204198394782	-0.1983166295596509	-0.9054003546703534	11.467418650678	0.2001442121589366	-2.029519704895017	0	0	0	0	0	0	0	0	0	0	0	0	0	0	0	0	0	0	0
12.35	20520.44721559299	-145438.3392042378	-42868.29068370099	0	0.93	0	-3.645035699058932	-5.002157470861604	-2.761679373605953	33.38380894250365	0.5826573829034151	-5.850356067535749	3.58832302853743e-21	6.20972697701766e-20	24.06541021719096	-0.0651719838458845	-0.8030584754487946	13.30914598915976	0.2322884181394353	-1.580209296127226	1.245288925554192e-19	7.547517796629129e-20	3.798756021297796e-29	6.48218394734532e-20	3.597342476855586e-29	2.443692850988119e-19	2.529058822732279e-27	-1.184719152391316e-17	2.188022536965119e-15	2.187986529630707e-15	5.591332614176367e-20	-6.824542304374747e-20	1.242381515699837e-17	-3.802769911716062e-18	-2.712685125375031e-18	2.188024562196284e-15	2.188022217135434e-15	-9.612738688409899e-20	-3.144518164076759e-20
12.36	20520.56835922916	-145438.2468384851	-42868.4352019949	0	0.93	0	-2.5356078929736	-5.692726014152345	-3.510445386286916	36.05533924053697	0.6292843826708818	-9.219711682875456	-1.242959225550736e-17	2.375931291971556e-23	24.21908427506213	0.1941916659310875	-0.6419401884377932	14.70446173490843	0.2566412720076697	-1.136308045462604	7.340227173810753e-19	2.583551101337686e-23	-1.885287035120362e-25	-2.011727887201391e-18	-9.977015305461726e-26	1.096878220638241e-15	-3.435240012368185e-21	2.210928488449248e-14	0	0	5.523273492480137e-19	-4.794612542331295e-18	3.575019546625236e-15	6.211415705649856e-15	6.560011475279965e-15	0	0	-6.44147487174054e-18	-2.686548844449886e-18
